<svg width="13" height="14" viewBox="0 0 13 14" fill="none" xmlns="http://www.w3.org/2000/svg">
<path d="M0.617352 1.15283C0.991921 0.77826 1.59902 0.77826 1.97339 1.15283L6.49361 5.67306L11.0138 1.15283C11.3884 0.77826 11.9955 0.77826 12.3699 1.15283C12.7444 1.5274 12.7444 2.1345 12.3699 2.50887L7.84965 7.0291L12.3699 11.5493C12.7444 11.9239 12.7444 12.531 12.3699 12.9054C11.9953 13.2799 11.3882 13.2797 11.0138 12.9054L6.49361 8.38513L1.97339 12.9054C1.59882 13.2797 0.991721 13.2797 0.617352 12.9054C0.242784 12.5308 0.242784 11.9237 0.617352 11.5493L5.13757 7.0291L0.617352 2.50887C0.242784 2.1343 0.242784 1.5272 0.617352 1.15283V1.15283Z" fill="black"/>
</svg>
