<svg width="15" height="16" viewBox="0 0 15 16" fill="none" xmlns="http://www.w3.org/2000/svg">
<path fill-rule="evenodd" clip-rule="evenodd" d="M14.4222 1.98904C14.5149 1.89651 14.5884 1.78664 14.6386 1.6657C14.6888 1.54476 14.7146 1.41512 14.7147 1.28418C14.7148 1.15325 14.6891 1.02357 14.6391 0.902574C14.589 0.781574 14.5156 0.671612 14.4231 0.578969C14.3306 0.486326 14.2207 0.412815 14.0998 0.362633C13.9788 0.312452 13.8492 0.286582 13.7183 0.286502C13.5873 0.286421 13.4577 0.312131 13.3367 0.362164C13.2157 0.412197 13.1057 0.485573 13.013 0.578102L7.00011 6.59104L0.988914 0.578102C0.801813 0.391001 0.548048 0.285889 0.283447 0.285889C0.0188458 0.285889 -0.234918 0.391001 -0.42202 0.578102C-0.609121 0.765204 -0.714233 1.01897 -0.714233 1.28357C-0.714233 1.54817 -0.609121 1.80193 -0.42202 1.98904L5.59091 8.00024L-0.42202 14.0114C-0.514663 14.1041 -0.588151 14.2141 -0.63829 14.3351C-0.688428 14.4562 -0.714233 14.5859 -0.714233 14.7169C-0.714233 14.8479 -0.688428 14.9777 -0.63829 15.0987C-0.588151 15.2197 -0.514663 15.3297 -0.42202 15.4224C-0.234918 15.6095 0.0188457 15.7146 0.283447 15.7146C0.414464 15.7146 0.544199 15.6888 0.665243 15.6386C0.786287 15.5885 0.896271 15.515 0.988914 15.4224L7.00011 9.40944L13.013 15.4224C13.2001 15.6092 13.4538 15.7141 13.7183 15.714C13.9827 15.7138 14.2362 15.6086 14.4231 15.4215C14.61 15.2344 14.7149 14.9807 14.7147 14.7163C14.7146 14.4519 14.6093 14.1983 14.4222 14.0114L8.40931 8.00024L14.4222 1.98904Z" fill="black"/>
</svg>
