<svg width="29" height="26" viewBox="0 0 29 26" fill="none" xmlns="http://www.w3.org/2000/svg">
<path d="M24.8128 13.7868L14.5003 24.0003L4.18779 13.7868C3.50759 13.1249 2.9718 12.3293 2.61417 11.4502C2.25654 10.571 2.08481 9.62736 2.10981 8.67859C2.1348 7.72981 2.35597 6.79649 2.75938 5.93739C3.1628 5.07829 3.73973 4.31203 4.45384 3.68685C5.16794 3.06167 6.00376 2.59113 6.90866 2.30484C7.81355 2.01855 8.76792 1.92273 9.71167 2.02341C10.6554 2.12408 11.5681 2.41907 12.3922 2.8898C13.2164 3.36053 13.9341 3.9968 14.5003 4.75855C15.0689 4.00233 15.7875 3.37162 16.6111 2.90589C17.4346 2.44015 18.3455 2.14942 19.2866 2.05189C20.2277 1.95437 21.1788 2.05214 22.0804 2.33909C22.9819 2.62605 23.8146 3.096 24.5262 3.71955C25.2378 4.3431 25.813 5.10682 26.2159 5.96291C26.6187 6.81899 26.8406 7.74902 26.8675 8.69478C26.8944 9.64054 26.7258 10.5817 26.3722 11.4593C26.0187 12.3369 25.4878 13.1321 24.8128 13.7951" stroke="#FF2828" stroke-width="2.75" stroke-linecap="round" stroke-linejoin="round"/>
</svg>
