<svg width="245" height="52" viewBox="0 0 245 52" fill="none" xmlns="http://www.w3.org/2000/svg">
<path d="M23.9223 39.3016C23.9223 29.0492 22.2136 15.3793 0 15.3793" stroke="black" stroke-width="8.54368"/>
<rect x="27.3398" y="10.2528" width="10.2524" height="10.2524" fill="black"/>
<path d="M67.8611 42H60.8223L71.5474 10.9321H80.0122L90.7221 42H83.6833L75.9012 18.0316H75.6584L67.8611 42ZM67.4212 29.7882H84.0474V34.9157H67.4212V29.7882ZM101.03 10.9321V42H94.4615V10.9321H101.03ZM116.321 10.9321H124.422L132.978 31.8058H133.342L141.898 10.9321H149.998V42H143.627V21.7785H143.369L135.329 41.8483H130.991L122.951 21.7027H122.693V42H116.321V10.9321ZM161.933 42.4399C160.447 42.4399 159.122 42.182 157.959 41.6663C156.796 41.1404 155.876 40.3667 155.198 39.3453C154.53 38.3137 154.197 37.0293 154.197 35.4921C154.197 34.1976 154.434 33.1104 154.91 32.2306C155.385 31.3507 156.032 30.6428 156.851 30.1068C157.671 29.5708 158.601 29.1663 159.643 28.8932C160.694 28.6202 161.797 28.428 162.95 28.3168C164.305 28.1752 165.397 28.0437 166.226 27.9223C167.056 27.7909 167.657 27.5987 168.032 27.3459C168.406 27.0931 168.593 26.7189 168.593 26.2233V26.1323C168.593 25.1715 168.29 24.4282 167.683 23.9023C167.086 23.3764 166.237 23.1135 165.134 23.1135C163.971 23.1135 163.046 23.3714 162.358 23.8872C161.67 24.3928 161.215 25.03 160.993 25.7986L155.016 25.3131C155.319 23.8973 155.916 22.6736 156.806 21.642C157.696 20.6003 158.844 19.8014 160.25 19.2452C161.665 18.6788 163.304 18.3957 165.165 18.3957C166.459 18.3957 167.698 18.5474 168.881 18.8508C170.075 19.1542 171.131 19.6244 172.052 20.2616C172.982 20.8987 173.715 21.7179 174.251 22.7191C174.787 23.7102 175.055 24.8985 175.055 26.284V42H168.927V38.7688H168.745C168.37 39.497 167.87 40.1392 167.243 40.6954C166.616 41.2415 165.862 41.6713 164.983 41.9848C164.103 42.2882 163.086 42.4399 161.933 42.4399ZM163.784 37.98C164.735 37.98 165.574 37.7929 166.302 37.4187C167.03 37.0344 167.602 36.5186 168.016 35.8714C168.431 35.2241 168.638 34.4909 168.638 33.6717V31.199C168.436 31.3305 168.158 31.4519 167.804 31.5631C167.46 31.6643 167.071 31.7603 166.636 31.8513C166.201 31.9323 165.766 32.0081 165.331 32.0789C164.897 32.1396 164.502 32.1952 164.148 32.2458C163.39 32.357 162.727 32.534 162.161 32.7767C161.595 33.0194 161.155 33.3481 160.841 33.7628C160.528 34.1673 160.371 34.6729 160.371 35.2797C160.371 36.1596 160.689 36.8321 161.327 37.2973C161.974 37.7524 162.793 37.98 163.784 37.98ZM180.069 42V18.6991H186.334V22.7646H186.577C187.002 21.3184 187.715 20.2262 188.716 19.4879C189.717 18.7395 190.87 18.3653 192.175 18.3653C192.498 18.3653 192.847 18.3855 193.221 18.426C193.595 18.4664 193.924 18.5221 194.207 18.5929V24.3271C193.904 24.2361 193.484 24.1552 192.948 24.0844C192.412 24.0136 191.922 23.9782 191.477 23.9782C190.526 23.9782 189.677 24.1855 188.928 24.6001C188.19 25.0047 187.603 25.571 187.168 26.2992C186.744 27.0273 186.531 27.8667 186.531 28.8174V42H180.069ZM203.404 35.2949L203.419 27.5431H204.36L211.823 18.6991H219.241L209.214 30.4102H207.682L203.404 35.2949ZM197.548 42V10.9321H204.011V42H197.548ZM212.112 42L205.255 31.8513L209.563 27.2852L219.681 42H212.112ZM228.267 35.2949L228.283 27.5431H229.223L236.687 18.6991H244.105L234.078 30.4102H232.545L228.267 35.2949ZM222.412 42V10.9321H228.874V42H222.412ZM236.975 42L230.118 31.8513L234.426 27.2852L244.545 42H236.975Z" fill="black"/>
</svg>
