<svg width="158" height="33" viewBox="0 0 158 33" fill="none" xmlns="http://www.w3.org/2000/svg">
<path d="M15.3419 25.2052C15.3419 18.6301 14.2461 9.86328 0 9.86328" stroke="black" stroke-width="5.47926"/>
<rect x="17.5337" y="6.57568" width="6.57512" height="6.57512" fill="black"/>
<path d="M43.521 26H39.0068L45.8851 6.0754H51.3138L58.1823 26H53.6681L48.6772 10.6285H48.5216L43.521 26ZM43.2388 18.1683H53.9016V21.4566H43.2388V18.1683ZM64.793 6.0754V26H60.5804V6.0754H64.793ZM74.5997 6.0754H79.7948L85.2819 19.4622H85.5154L91.0024 6.0754H96.1976V26H92.1115V13.0315H91.9461L86.7899 25.9027H84.0074L78.8511 12.9829H78.6858V26H74.5997V6.0754ZM103.852 26.2821C102.898 26.2821 102.049 26.1167 101.303 25.786C100.557 25.4487 99.9667 24.9525 99.5322 24.2975C99.1041 23.6359 98.8901 22.8122 98.8901 21.8263C98.8901 20.9961 99.0425 20.2989 99.3473 19.7346C99.6521 19.1704 100.067 18.7164 100.593 18.3726C101.118 18.0289 101.715 17.7694 102.383 17.5943C103.057 17.4192 103.764 17.296 104.504 17.2246C105.373 17.1338 106.073 17.0495 106.605 16.9717C107.137 16.8873 107.523 16.7641 107.763 16.602C108.003 16.4398 108.123 16.1998 108.123 15.882V15.8237C108.123 15.2075 107.928 14.7308 107.539 14.3935C107.156 14.0563 106.611 13.8876 105.905 13.8876C105.159 13.8876 104.565 14.053 104.124 14.3838C103.683 14.7081 103.391 15.1167 103.249 15.6096L99.4154 15.2983C99.61 14.3903 99.9927 13.6055 100.563 12.9439C101.134 12.2759 101.87 11.7635 102.772 11.4068C103.68 11.0436 104.731 10.862 105.924 10.862C106.754 10.862 107.549 10.9593 108.308 11.1538C109.073 11.3484 109.751 11.65 110.341 12.0586C110.938 12.4672 111.408 12.9926 111.752 13.6347C112.095 14.2703 112.267 15.0324 112.267 15.921V26H108.337V23.9278H108.22C107.98 24.3947 107.659 24.8066 107.257 25.1633C106.855 25.5136 106.372 25.7892 105.807 25.9903C105.243 26.1848 104.591 26.2821 103.852 26.2821ZM105.039 23.4219C105.648 23.4219 106.187 23.3019 106.654 23.0619C107.121 22.8154 107.487 22.4847 107.753 22.0696C108.019 21.6545 108.152 21.1842 108.152 20.6589V19.0731C108.022 19.1574 107.844 19.2352 107.617 19.3066C107.396 19.3714 107.147 19.4331 106.868 19.4914C106.589 19.5433 106.31 19.592 106.031 19.6374C105.752 19.6763 105.499 19.7119 105.272 19.7444C104.786 19.8157 104.361 19.9292 103.998 20.0849C103.634 20.2405 103.352 20.4513 103.151 20.7173C102.95 20.9767 102.85 21.301 102.85 21.6901C102.85 22.2544 103.054 22.6857 103.463 22.9841C103.878 23.2759 104.403 23.4219 105.039 23.4219ZM115.483 26V11.0566H119.501V13.6639H119.656C119.929 12.7364 120.386 12.0359 121.028 11.5624C121.67 11.0825 122.409 10.8425 123.246 10.8425C123.454 10.8425 123.677 10.8555 123.917 10.8814C124.157 10.9074 124.368 10.943 124.55 10.9884V14.6659C124.355 14.6076 124.086 14.5557 123.742 14.5103C123.399 14.4649 123.084 14.4422 122.799 14.4422C122.189 14.4422 121.644 14.5751 121.164 14.8411C120.691 15.1005 120.315 15.4637 120.036 15.9307C119.763 16.3977 119.627 16.936 119.627 17.5457V26H115.483ZM130.448 21.6999L130.458 16.7284H131.061L135.847 11.0566H140.605L134.174 18.5672H133.191L130.448 21.6999ZM126.693 26V6.0754H130.837V26H126.693ZM136.032 26L131.635 19.4914L134.398 16.5631L140.887 26H136.032ZM146.393 21.6999L146.403 16.7284H147.006L151.793 11.0566H156.55L150.12 18.5672H149.137L146.393 21.6999ZM142.638 26V6.0754H146.783V26H142.638ZM151.978 26L147.58 19.4914L150.343 16.5631L156.832 26H151.978Z" fill="black"/>
</svg>
