<svg width="26" height="22" viewBox="0 0 26 22" fill="none" xmlns="http://www.w3.org/2000/svg">
<path d="M22.8179 5.46543C22.834 5.69313 22.834 5.92089 22.834 6.14859C22.834 13.0938 17.5988 21.0963 8.03033 21.0963C5.08247 21.0963 2.34405 20.2342 0.0405273 18.7379C0.459362 18.7866 0.862033 18.8029 1.29698 18.8029C3.72932 18.8029 5.96843 17.9734 7.75647 16.5583C5.46907 16.5095 3.55216 14.9969 2.8917 12.9149C3.2139 12.9637 3.53604 12.9962 3.87435 12.9962C4.34148 12.9962 4.80866 12.9311 5.24356 12.8173C2.85952 12.3293 1.07143 10.2149 1.07143 7.66124V7.59621C1.76406 7.98658 2.56955 8.23055 3.42324 8.26304C2.0218 7.31964 1.10366 5.70941 1.10366 3.88769C1.10366 2.9118 1.36134 2.01721 1.81241 1.23648C4.37366 4.42445 8.2236 6.50636 12.5406 6.73412C12.4601 6.34375 12.4118 5.93716 12.4118 5.53052C12.4118 2.63528 14.7314 0.276855 17.6148 0.276855C19.1129 0.276855 20.466 0.911196 21.4164 1.9359C22.5923 1.7082 23.7199 1.26902 24.7186 0.667223C24.332 1.88714 23.5105 2.91185 22.4312 3.56241C23.4783 3.44861 24.4931 3.15577 25.4274 2.74918C24.7187 3.79011 23.8327 4.71719 22.8179 5.46543Z" fill="black"/>
</svg>
