<svg width="31" height="22" viewBox="0 0 31 22" fill="none" xmlns="http://www.w3.org/2000/svg">
<path d="M25.4948 0.492432H5.86591H5.86623C4.53427 0.492432 3.25709 1.02133 2.31551 1.96321C1.3736 2.9048 0.844727 4.18198 0.844727 5.51394V16.0131V16.0128C0.844727 17.3448 1.37362 18.6219 2.31551 19.5635C3.25709 20.5054 4.53427 21.0343 5.86623 21.0343H25.4951H25.4948C26.8268 21.0343 28.1039 20.5054 29.0455 19.5635C29.9874 18.6219 30.5163 17.3448 30.5163 16.0128V5.51362V5.51394C30.5163 4.18198 29.9874 2.9048 29.0455 1.96321C28.1039 1.0213 26.8268 0.492432 25.4948 0.492432ZM21.4917 10.9639L12.5902 15.5287C12.5195 15.565 12.4351 15.5625 12.3673 15.5214C12.2992 15.4807 12.2574 15.4071 12.2568 15.3278V6.19811C12.2574 6.11882 12.2992 6.04527 12.3673 6.00451C12.4351 5.96344 12.5195 5.96089 12.5902 5.99719L21.4917 10.562C21.5678 10.6012 21.6158 10.6795 21.6158 10.7652C21.6158 10.8509 21.5678 10.9292 21.4917 10.9684V10.9639Z" fill="black"/>
</svg>
